<svg width="32" height="32" viewBox="0 0 32 32" fill="none" xmlns="http://www.w3.org/2000/svg">
<g clip-path="url(#clip0_3_13)" filter="url(#filter0_d_3_13)">
<path d="M4 1.719C4 0.7695 4.789 0 5.7625 0H26.2375C27.211 0 28 0.7695 28 1.719V22.281C28 23.2305 27.211 24 26.2375 24H5.7625C4.789 24 4 23.2305 4 22.281V1.719ZM11.4145 20.091V9.2535H7.813V20.091H11.4145ZM9.6145 7.773C10.87 7.773 11.6515 6.942 11.6515 5.901C11.629 4.8375 10.8715 4.029 9.6385 4.029C8.4055 4.029 7.6 4.839 7.6 5.901C7.6 6.942 8.3815 7.773 9.5905 7.773H9.6145ZM16.9765 20.091V14.0385C16.9765 13.7145 17.0005 13.3905 17.0965 13.1595C17.356 12.513 17.9485 11.8425 18.9445 11.8425C20.248 11.8425 20.7685 12.8355 20.7685 14.2935V20.091H24.37V13.875C24.37 10.545 22.594 8.997 20.224 8.997C18.313 8.997 17.4565 10.047 16.9765 10.7865V10.824H16.9525C16.9605 10.8115 16.9685 10.799 16.9765 10.7865V9.2535H13.3765C13.4215 10.2705 13.3765 20.091 13.3765 20.091H16.9765Z" fill="#EAB308"/>
</g>
<defs>
<filter id="filter0_d_3_13" x="0" y="0" width="32" height="32" filterUnits="userSpaceOnUse" color-interpolation-filters="sRGB">
<feFlood flood-opacity="0" result="BackgroundImageFix"/>
<feColorMatrix in="SourceAlpha" type="matrix" values="0 0 0 0 0 0 0 0 0 0 0 0 0 0 0 0 0 0 127 0" result="hardAlpha"/>
<feOffset dy="4"/>
<feGaussianBlur stdDeviation="2"/>
<feComposite in2="hardAlpha" operator="out"/>
<feColorMatrix type="matrix" values="0 0 0 0 0 0 0 0 0 0 0 0 0 0 0 0 0 0 0.25 0"/>
<feBlend mode="normal" in2="BackgroundImageFix" result="effect1_dropShadow_3_13"/>
<feBlend mode="normal" in="SourceGraphic" in2="effect1_dropShadow_3_13" result="shape"/>
</filter>
<clipPath id="clip0_3_13">
<rect width="24" height="24" fill="white" transform="translate(4)"/>
</clipPath>
</defs>
</svg>
